<?xml version="1.0" encoding="UTF-8"?>
<!DOCTYPE svg PUBLIC "-//W3C//DTD SVG 1.1//EN" "http://www.w3.org/Graphics/SVG/1.1/DTD/svg11.dtd">
<svg xmlns="http://www.w3.org/2000/svg" version="1.1" width="512px" height="512px" style="shape-rendering:geometricPrecision; text-rendering:geometricPrecision; image-rendering:optimizeQuality; fill-rule:evenodd; clip-rule:evenodd" xmlns:xlink="http://www.w3.org/1999/xlink">
<g><path style="opacity:0.997" fill="#69a8fa" d="M 174.5,212.5 C 185.027,219.345 195.027,227.012 204.5,235.5C 218.354,220.479 233.021,206.312 248.5,193C 267.736,178.916 287.069,165.082 306.5,151.5C 334.423,130.29 357.256,104.623 375,74.5C 384.214,58.5736 393.048,42.4069 401.5,26C 402.996,25.4926 404.163,25.9926 405,27.5C 420.142,48.8665 425.475,72.5332 421,98.5C 420.199,105.008 418.699,111.342 416.5,117.5C 428.211,125.252 433.877,136.252 433.5,150.5C 433.571,169.367 425.238,183.034 408.5,191.5C 416.276,209.56 414.276,226.393 402.5,242C 398.828,244.838 394.828,247.171 390.5,249C 393.557,265.894 388.224,279.561 374.5,290C 371,292.167 367.5,294.333 364,296.5C 364.681,308.455 361.348,319.121 354,328.5C 349.984,332.348 346.151,336.348 342.5,340.5C 359.868,348.178 377.868,354.011 396.5,358C 425.951,364.19 455.618,369.024 485.5,372.5C 465.388,391.125 447.888,411.792 433,434.5C 423.193,450.089 417.693,467.089 416.5,485.5C 405.644,473.477 393.977,462.311 381.5,452C 355.712,437.107 327.879,430.607 298,432.5C 270.303,432.786 242.803,435.286 215.5,440C 191.853,442.671 170.186,437.338 150.5,424C 116.962,399.471 93.7954,367.304 81,327.5C 77.8239,316.286 75.1573,304.953 73,293.5C 68.1376,280.274 60.6376,268.774 50.5,259C 42.4848,252.334 34.1514,246.167 25.5,240.5C 50.7053,231.232 75.7053,221.399 100.5,211C 116.594,204.54 133.261,202.206 150.5,204C 158.918,205.75 166.918,208.583 174.5,212.5 Z"/></g>
<g><path style="opacity:0.993" fill="#5283c3" d="M 306.5,151.5 C 287.069,165.082 267.736,178.916 248.5,193C 233.021,206.312 218.354,220.479 204.5,235.5C 195.027,227.012 185.027,219.345 174.5,212.5C 206.017,180.384 227.85,142.384 240,98.5C 244.359,82.0555 248.859,65.7222 253.5,49.5C 258.112,52.6084 262.278,56.275 266,60.5C 286.347,87.6781 299.847,118.011 306.5,151.5 Z"/></g>
<g><path style="opacity:1" fill="#5283c4" d="M 112.5,339.5 C 116.594,338.705 119.761,340.038 122,343.5C 128.492,355.653 136.159,366.987 145,377.5C 145.833,384.667 142.667,387.833 135.5,387C 123.992,374.983 114.992,361.316 108.5,346C 109.205,343.458 110.539,341.292 112.5,339.5 Z"/></g>
</svg>
